<svg width="17" height="17" viewBox="0 0 17 17" fill="none" xmlns="http://www.w3.org/2000/svg">
<path d="M8.59928 9.07161C8.96747 9.07161 9.26595 8.77314 9.26595 8.40495C9.26595 8.03676 8.96747 7.73828 8.59928 7.73828C8.23109 7.73828 7.93262 8.03676 7.93262 8.40495C7.93262 8.77314 8.23109 9.07161 8.59928 9.07161Z" stroke="#8E8EA0" stroke-width="1.33333" stroke-linecap="round" stroke-linejoin="round"/>
<path d="M13.2663 9.07161C13.6345 9.07161 13.9329 8.77314 13.9329 8.40495C13.9329 8.03676 13.6345 7.73828 13.2663 7.73828C12.8981 7.73828 12.5996 8.03676 12.5996 8.40495C12.5996 8.77314 12.8981 9.07161 13.2663 9.07161Z" stroke="#8E8EA0" stroke-width="1.33333" stroke-linecap="round" stroke-linejoin="round"/>
<path d="M3.93327 9.07161C4.30146 9.07161 4.59993 8.77314 4.59993 8.40495C4.59993 8.03676 4.30146 7.73828 3.93327 7.73828C3.56508 7.73828 3.2666 8.03676 3.2666 8.40495C3.2666 8.77314 3.56508 9.07161 3.93327 9.07161Z" stroke="#8E8EA0" stroke-width="1.33333" stroke-linecap="round" stroke-linejoin="round"/>
</svg>
