<svg width="17" height="17" viewBox="0 0 17 17" fill="none" xmlns="http://www.w3.org/2000/svg">
<path d="M10.186 1.93083C10.2135 1.80161 10.1975 1.66693 10.1406 1.54769C10.0837 1.42846 9.98908 1.33133 9.87136 1.27138C9.75363 1.21143 9.6194 1.19202 9.48951 1.21615C9.35962 1.24028 9.24133 1.3066 9.15298 1.40483L2.35298 9.00483C2.27578 9.09115 2.2252 9.19797 2.20736 9.31239C2.18952 9.42682 2.20517 9.54396 2.25243 9.64968C2.29969 9.75541 2.37653 9.8452 2.47369 9.90822C2.57085 9.97124 2.68417 10.0048 2.79998 10.0048H8.05798L7.01398 14.8788C6.98651 15.0081 7.00245 15.1427 7.05934 15.262C7.11623 15.3812 7.21088 15.4783 7.32861 15.5383C7.44634 15.5982 7.58056 15.6176 7.71045 15.5935C7.84034 15.5694 7.95864 15.5031 8.04698 15.4048L14.847 7.80483C14.9242 7.71852 14.9748 7.6117 14.9926 7.49728C15.0104 7.38285 14.9948 7.26571 14.9475 7.15998C14.9003 7.05426 14.8234 6.96447 14.7263 6.90145C14.6291 6.83843 14.5158 6.80488 14.4 6.80483H9.14198L10.186 1.93083Z" fill="#8E8EA0"/>
</svg>
