<svg width="17" height="17" viewBox="0 0 17 17" fill="none" xmlns="http://www.w3.org/2000/svg">
<path d="M13.2982 1.8469C13.2619 1.66551 13.164 1.50228 13.0209 1.385C12.8779 1.26771 12.6987 1.20361 12.5137 1.20361C12.3287 1.20361 12.1495 1.26771 12.0064 1.385C11.8634 1.50228 11.7654 1.66551 11.7292 1.8469L11.5382 2.7999C11.5073 2.95491 11.4311 3.09728 11.3193 3.20905C11.2076 3.32082 11.0652 3.39697 10.9102 3.4279L9.95718 3.6179C9.77525 3.65363 9.61137 3.75146 9.49358 3.89464C9.37578 4.03783 9.31138 4.21748 9.31138 4.4029C9.31138 4.58831 9.37578 4.76797 9.49358 4.91115C9.61137 5.05434 9.77525 5.15216 9.95718 5.1879L10.9102 5.3779C11.0653 5.4089 11.2078 5.4852 11.3196 5.59716C11.4314 5.70912 11.5074 5.85171 11.5382 6.0069L11.7282 6.9599C11.7639 7.14183 11.8617 7.30571 12.0049 7.42351C12.1481 7.5413 12.3278 7.60571 12.5132 7.60571C12.6986 7.60571 12.8783 7.5413 13.0214 7.42351C13.1646 7.30571 13.2624 7.14183 13.2982 6.9599L13.4882 6.0069C13.5192 5.85176 13.5955 5.70929 13.7074 5.59751C13.8194 5.48572 13.962 5.40965 14.1172 5.3789L15.0702 5.1889C15.2521 5.15316 15.416 5.05534 15.5338 4.91215C15.6516 4.76897 15.716 4.58931 15.716 4.4039C15.716 4.21848 15.6516 4.03883 15.5338 3.89564C15.416 3.75246 15.2521 3.65463 15.0702 3.6189L14.1172 3.4289C13.962 3.3979 13.8196 3.3216 13.7078 3.20964C13.596 3.09768 13.5199 2.95509 13.4892 2.7999L13.2982 1.8469ZM6.07318 4.9509C6.02034 4.79121 5.91851 4.65224 5.78216 4.55373C5.64582 4.45523 5.48189 4.40221 5.31368 4.40221C5.14548 4.40221 4.98155 4.45523 4.8452 4.55373C4.70886 4.65224 4.60703 4.79121 4.55418 4.9509L4.00818 6.5909C3.96894 6.70902 3.90268 6.81636 3.81466 6.90438C3.72665 6.99239 3.61931 7.05866 3.50118 7.0979L1.86118 7.6439C1.70149 7.69674 1.56252 7.79857 1.46402 7.93492C1.36552 8.07127 1.3125 8.23519 1.3125 8.4034C1.3125 8.5716 1.36552 8.73553 1.46402 8.87188C1.56252 9.00823 1.70149 9.11006 1.86118 9.1629L3.50118 9.7099C3.61909 9.74894 3.7263 9.8149 3.8143 9.90255C3.9023 9.9902 3.96868 10.0971 4.00818 10.2149L4.55418 11.8559C4.60703 12.0156 4.70886 12.1546 4.8452 12.2531C4.98155 12.3516 5.14548 12.4046 5.31368 12.4046C5.48189 12.4046 5.64582 12.3516 5.78216 12.2531C5.91851 12.1546 6.02034 12.0156 6.07318 11.8559L6.61918 10.2159C6.65832 10.0979 6.72444 9.99061 6.81227 9.9026C6.9001 9.81459 7.00724 9.74827 7.12518 9.7089L8.76618 9.1629C8.92587 9.11006 9.06485 9.00823 9.16335 8.87188C9.26185 8.73553 9.31487 8.5716 9.31487 8.4034C9.31487 8.23519 9.26185 8.07127 9.16335 7.93492C9.06485 7.79857 8.92587 7.69674 8.76618 7.6439L7.12618 7.0979C7.00817 7.05876 6.9009 6.99265 6.81289 6.90481C6.72488 6.81698 6.65856 6.70984 6.61918 6.5919L6.07318 4.9509ZM11.6732 11.3509C11.6203 11.1912 11.5185 11.0522 11.3822 10.9537C11.2458 10.8552 11.0819 10.8022 10.9137 10.8022C10.7455 10.8022 10.5816 10.8552 10.4452 10.9537C10.3089 11.0522 10.207 11.1912 10.1542 11.3509L10.0072 11.7909C9.96814 11.9088 9.90219 12.016 9.81453 12.104C9.72688 12.192 9.61994 12.2584 9.50218 12.2979L9.06118 12.4439C8.90149 12.4967 8.76252 12.5986 8.66402 12.7349C8.56552 12.8713 8.5125 13.0352 8.5125 13.2034C8.5125 13.3716 8.56552 13.5355 8.66402 13.6719C8.76252 13.8082 8.90149 13.9101 9.06118 13.9629L9.50118 14.1089C9.6192 14.148 9.72647 14.2141 9.81448 14.302C9.90249 14.3898 9.96881 14.497 10.0082 14.6149L10.1542 15.0559C10.207 15.2156 10.3089 15.3546 10.4452 15.4531C10.5816 15.5516 10.7455 15.6046 10.9137 15.6046C11.0819 15.6046 11.2458 15.5516 11.3822 15.4531C11.5185 15.3546 11.6203 15.2156 11.6732 15.0559L11.8202 14.6159C11.8593 14.4979 11.9254 14.3906 12.0133 14.3026C12.1011 14.2146 12.2082 14.1483 12.3262 14.1089L12.7662 13.9629C12.9259 13.9101 13.0648 13.8082 13.1633 13.6719C13.2618 13.5355 13.3149 13.3716 13.3149 13.2034C13.3149 13.0352 13.2618 12.8713 13.1633 12.7349C13.0648 12.5986 12.9259 12.4967 12.7662 12.4439L12.3262 12.2969C12.2083 12.2579 12.1011 12.1919 12.0131 12.1042C11.9251 12.0166 11.8587 11.9097 11.8192 11.7919L11.6732 11.3509Z" fill="#AB68FF"/>
</svg>
