<svg width="17" height="17" viewBox="0 0 17 17" fill="none" xmlns="http://www.w3.org/2000/svg">
<path d="M13.2663 2.90479H3.93294C3.19656 2.90479 2.59961 3.50174 2.59961 4.23812V13.5715C2.59961 14.3078 3.19656 14.9048 3.93294 14.9048H13.2663C14.0027 14.9048 14.5996 14.3078 14.5996 13.5715V4.23812C14.5996 3.50174 14.0027 2.90479 13.2663 2.90479Z" stroke="#C5C5D2" stroke-width="1.33333" stroke-linecap="round" stroke-linejoin="round"/>
<path d="M6.2666 7.57129C6.81889 7.57129 7.2666 7.12357 7.2666 6.57129C7.2666 6.019 6.81889 5.57129 6.2666 5.57129C5.71432 5.57129 5.2666 6.019 5.2666 6.57129C5.2666 7.12357 5.71432 7.57129 6.2666 7.57129Z" stroke="#C5C5D2" stroke-width="1.33333" stroke-linecap="round" stroke-linejoin="round"/>
<path d="M14.5993 10.9046L11.266 7.57129L3.93262 14.9046" stroke="#C5C5D2" stroke-width="1.33333" stroke-linecap="round" stroke-linejoin="round"/>
</svg>
