<svg width="17" height="17" viewBox="0 0 17 17" fill="none" xmlns="http://www.w3.org/2000/svg">
<g clip-path="url(#clip0_7_281)">
<path d="M1.09961 1.56772C1.09955 1.39506 1.1442 1.22533 1.2292 1.07505C1.31421 0.924765 1.43668 0.799053 1.58469 0.710147C1.73269 0.621242 1.9012 0.572173 2.0738 0.567716C2.2464 0.56326 2.41721 0.603568 2.56961 0.684716L15.4376 7.52172C15.5979 7.6069 15.7319 7.73408 15.8254 7.88963C15.9189 8.04518 15.9682 8.22324 15.9682 8.40472C15.9682 8.58619 15.9189 8.76425 15.8254 8.9198C15.7319 9.07535 15.5979 9.20254 15.4376 9.28772L2.56861 16.1247C2.41617 16.2057 2.24537 16.2458 2.07283 16.2412C1.90029 16.2365 1.73189 16.1873 1.584 16.0983C1.43611 16.0093 1.31377 15.8836 1.22889 15.7333C1.14401 15.583 1.09947 15.4133 1.09961 15.2407V10.7347C1.09959 10.5014 1.18115 10.2754 1.33017 10.0959C1.47919 9.91641 1.68629 9.79465 1.91561 9.75172L9.09961 8.40472L1.91561 7.05772C1.68629 7.01479 1.47919 6.89303 1.33017 6.71351C1.18115 6.53399 1.09959 6.30802 1.09961 6.07472V1.56772Z" fill="#ACACBE"/>
</g>
<defs>
<clipPath id="clip0_7_281">
<rect width="16" height="16" fill="white" transform="translate(0.599609 0.404785)"/>
</clipPath>
</defs>
</svg>
